<?xml version="1.0" encoding="UTF-8"?>
<svg version="1.1" xmlns="http://www.w3.org/2000/svg" width="500" height="156">
<path d="M0 0 C0.02321971 11.18795042 0.04096407 22.37589506 0.05181217 33.56386471 C0.05701997 38.75946342 0.06407928 43.95504558 0.07543945 49.15063477 C0.08634325 54.16918156 0.09229267 59.18771249 0.09487724 64.20627022 C0.09671802 66.11631075 0.10031252 68.02635046 0.10573006 69.9363842 C0.11304002 72.62158935 0.11398677 75.30672978 0.11352539 77.99194336 C0.11712067 78.77310013 0.12071594 79.5542569 0.12442017 80.35908508 C0.11120547 87.51506264 -0.05579296 94.66826226 -2.9375 101.3125 C-3.44603516 102.51326172 -3.44603516 102.51326172 -3.96484375 103.73828125 C-4.93174917 105.85087838 -5.94402577 107.93066933 -7 110 C-7.66 110 -8.32 110 -9 110 C-9.17789063 110.88945312 -9.17789063 110.88945312 -9.359375 111.796875 C-11.61121528 119.54100864 -19.43213523 123.43575599 -25.87890625 127.30078125 C-38.11214339 133.96092913 -51.25461765 134.55546717 -64.63671875 131.09375 C-77.76051315 126.82584938 -88.46407527 120.04981277 -95.07836914 107.69555664 C-101.74083673 94.53475642 -103.85201697 78.59268091 -99.3125 64.3125 C-97.32480643 59.30408215 -94.82497786 54.58480013 -92 50 C-91.34 50 -90.68 50 -90 50 C-89.75894531 49.43023437 -89.51789063 48.86046875 -89.26953125 48.2734375 C-83.84175636 38.55354523 -72.63340989 33.48055863 -62.51171875 30.19140625 C-51.45133159 27.49601778 -38.60960386 27.87997275 -28 32 C-27 33 -27 33 -26.88647461 35.95922852 C-26.89432983 37.89946899 -26.89432983 37.89946899 -26.90234375 39.87890625 C-26.9037587 40.5655687 -26.90517365 41.25223114 -26.90663147 41.95970154 C-26.91224521 44.16067801 -26.92479993 46.36155409 -26.9375 48.5625 C-26.94251324 50.05143083 -26.94707645 51.54036324 -26.95117188 53.02929688 C-26.96221907 56.68623075 -26.97949287 60.34310558 -27 64 C-27.99 64 -28.98 64 -30 64 C-30 63.34 -30 62.68 -30 62 C-30.66 62 -31.32 62 -32 62 C-32 61.34 -32 60.68 -32 60 C-32.86625 59.814375 -32.86625 59.814375 -33.75 59.625 C-36 59 -36 59 -37.6796875 57.98046875 C-40.9548384 56.59652451 -43.83195269 56.69810793 -47.375 56.6875 C-48.66148438 56.67074219 -49.94796875 56.65398437 -51.2734375 56.63671875 C-55.20733178 57.02021159 -57.58330709 58.09007874 -61 60 C-61.66 60 -62.32 60 -63 60 C-63 60.66 -63 61.32 -63 62 C-63.66 62 -64.32 62 -65 62 C-65 62.66 -65 63.32 -65 64 C-65.66 64 -66.32 64 -67 64 C-67.268125 64.680625 -67.53625 65.36125 -67.8125 66.0625 C-69 69 -69 69 -70.625 72.0625 C-73.14231412 78.03138914 -73.02994259 84.69502867 -71.12109375 90.8203125 C-68.07811723 97.54900645 -64.23406029 101.03018056 -57.640625 104.09765625 C-52.10312516 105.98990841 -45.92661886 106.02234212 -40.39453125 104.08984375 C-33.82176637 100.6658406 -29.31499715 96.16743571 -27 89 C-26.70112843 85.68899047 -26.70112843 85.68899047 -26.74462891 82.05761719 C-26.74100845 81.37884018 -26.737388 80.70006317 -26.73365784 80.00071716 C-26.72678816 78.53300058 -26.72425383 77.06525859 -26.72560501 75.59752655 C-26.72657479 73.26733834 -26.71357369 70.93760574 -26.69662476 68.60748291 C-26.65049888 61.9846145 -26.62576834 55.36179316 -26.61914062 48.73876953 C-26.61410125 44.68034233 -26.58972819 40.62239067 -26.55381393 36.56412506 C-26.54407065 35.02533078 -26.54165387 33.48647062 -26.54698563 31.94765472 C-26.57836925 22.44178249 -26.38512932 14.2220526 -20.03515625 6.66015625 C-14.2057828 1.93894092 -7.78989255 -2.59663085 0 0 Z M-17.9375 56.1875 C-19.31150124 58.97503552 -19.31150124 58.97503552 -18.1875 61.8125 C-17.795625 62.534375 -17.40375 63.25625 -17 64 C-17.680625 64.721875 -18.36125 65.44375 -19.0625 66.1875 C-21.28082654 68.80066475 -21.28082654 68.80066475 -20.875 71.6875 C-20.12456118 74.14951065 -20.12456118 74.14951065 -18 76 C-14.77329398 76.17926145 -11.89601516 76.22400379 -8.75 75.4375 C-7 75 -7 75 -4 76 C-4.185625 75.071875 -4.37125 74.14375 -4.5625 73.1875 C-5 70 -5 70 -4 67 C-4.99 67.33 -5.98 67.66 -7 68 C-7 68.66 -7 69.32 -7 70 C-7.61875 69.34 -8.2375 68.68 -8.875 68 C-10.75637427 65.7715451 -10.75637427 65.7715451 -13 66 C-13 65.01 -13 64.02 -13 63 C-12.01 63 -11.02 63 -10 63 C-9.32326553 59.59679066 -9.32326553 59.59679066 -9 56 C-10.82786272 53.79142762 -10.82786272 53.79142762 -13.4375 53.5625 C-16.19281236 53.75762935 -16.19281236 53.75762935 -17.9375 56.1875 Z " fill="#EEEEEE" transform="translate(108,12)"/>
<path d="M0 0 C0.47308594 0.37898438 0.94617188 0.75796875 1.43359375 1.1484375 C1.43359375 1.8084375 1.43359375 2.4684375 1.43359375 3.1484375 C2.01625 3.38691406 2.59890625 3.62539063 3.19921875 3.87109375 C5.89409279 5.41169482 7.29675727 7.13063106 9.18359375 9.5859375 C9.7971875 10.36839844 10.41078125 11.15085937 11.04296875 11.95703125 C12.43359375 14.1484375 12.43359375 14.1484375 12.43359375 17.1484375 C13.09359375 17.1484375 13.75359375 17.1484375 14.43359375 17.1484375 C15.08833783 18.83250019 15.73192781 20.52090086 16.37109375 22.2109375 C16.91056641 23.62052734 16.91056641 23.62052734 17.4609375 25.05859375 C19.88701498 32.76553066 19.56478 40.51233908 19.53125 48.51953125 C19.52983505 49.79699722 19.5284201 51.0744632 19.52696228 52.39064026 C19.52232891 55.76568496 19.51336398 59.14066047 19.5022583 62.51568604 C19.49197801 65.96813361 19.48745056 69.42058837 19.48242188 72.87304688 C19.47141841 79.63152935 19.45469942 86.38997943 19.43359375 93.1484375 C17.9893085 93.16737444 16.54495165 93.18090472 15.10058594 93.19213867 C13.89411407 93.20430672 13.89411407 93.20430672 12.66326904 93.21672058 C7.0897866 93.04603449 2.61517625 90.20158712 -1.44140625 86.5859375 C-2.14265625 85.7815625 -2.84390625 84.9771875 -3.56640625 84.1484375 C-4.12328125 83.6534375 -4.68015625 83.1584375 -5.25390625 82.6484375 C-10.24307751 76.94652749 -9.6769499 67.71892232 -9.8125 60.578125 C-9.84540716 59.17317012 -9.87861928 57.76822236 -9.91210938 56.36328125 C-9.9595754 54.18673038 -10.00414358 52.01021464 -10.04321289 49.83349609 C-10.08311615 47.70643744 -10.13456682 45.57989392 -10.1875 43.453125 C-10.21255615 42.19483887 -10.2376123 40.93655273 -10.26342773 39.64013672 C-10.7040049 34.56267123 -12.03291762 30.43299683 -15.06640625 26.3359375 C-15.48921875 25.75199219 -15.91203125 25.16804688 -16.34765625 24.56640625 C-17.53059962 23.00517266 -17.53059962 23.00517266 -19.56640625 22.1484375 C-19.56640625 21.4884375 -19.56640625 20.8284375 -19.56640625 20.1484375 C-27.97530945 16.66029988 -35.99201147 15.65634691 -44.75390625 18.5859375 C-49.7190469 20.76710951 -52.71874308 24.13928023 -56.0703125 28.3203125 C-56.56402344 28.92359375 -57.05773437 29.526875 -57.56640625 30.1484375 C-57.89640625 30.1484375 -58.22640625 30.1484375 -58.56640625 30.1484375 C-58.56640625 18.2684375 -58.56640625 6.3884375 -58.56640625 -5.8515625 C-38.20914216 -14.57610425 -18.55974512 -11.36015588 0 0 Z " fill="#F2F2F2" transform="translate(168.56640625,51.8515625)"/>
<path d="M0 0 C0.66 0 1.32 0 2 0 C2.350625 0.86625 2.70125 1.7325 3.0625 2.625 C6.04401197 7.81860149 10.42709814 11.69859794 16 14 C25.18355731 15.61731867 32.52488976 15.45130435 40.30078125 10.05859375 C42 9 42 9 44 9 C44.309375 8.38125 44.61875 7.7625 44.9375 7.125 C45.625 5.75 46.3125 4.375 47 3 C47.66 3 48.32 3 49 3 C49.05607422 4.75763672 49.05607422 4.75763672 49.11328125 6.55078125 C49.43423455 14.69779031 49.85319044 22.23333671 52.4765625 30.03125 C53 32 53 32 52 34 C37.0879494 42.50796065 23.30682851 43.44731687 7 39 C4.27375451 38.09667687 1.65754355 37.09428264 -1 36 C-1 35.34 -1 34.68 -1 34 C-1.721875 33.7525 -2.44375 33.505 -3.1875 33.25 C-6.34522626 31.84656611 -8.5530258 30.4469742 -11 28 C-11.5 25.4375 -11.5 25.4375 -11 23 C-9.5625 21.375 -9.5625 21.375 -8 20 C-7.67 19.01 -7.34 18.02 -7 17 C-6.34 17 -5.68 17 -5 17 C-5 15.68 -5 14.36 -5 13 C-4.34 13 -3.68 13 -3 13 C-2.87625 12.154375 -2.7525 11.30875 -2.625 10.4375 C-1.97229673 6.84763202 -1.04752537 3.49175125 0 0 Z " fill="#EEEEEE" transform="translate(109,103)"/>
<path d="M0 0 C2.77661248 2.77661248 2.25943041 4.44055562 2.2746582 8.32983398 C2.2823246 9.30327759 2.2823246 9.30327759 2.29014587 10.29638672 C2.30407115 12.4463823 2.30308292 14.59605837 2.30078125 16.74609375 C2.30466672 18.23820618 2.30900107 19.73031749 2.31376648 21.22242737 C2.32123508 24.35217878 2.32093293 27.4818174 2.31567383 30.61157227 C2.30987967 34.62458899 2.32680535 38.63714411 2.3500185 42.6500845 C2.36474302 45.73243413 2.36562929 48.81467229 2.36250877 51.89705086 C2.36302268 53.37664771 2.36827346 54.85625069 2.37832069 56.33581352 C2.39064297 58.40443874 2.38391985 60.47216097 2.37231445 62.54077148 C2.37294388 63.71832504 2.3735733 64.8958786 2.3742218 66.1091156 C2 69 2 69 0.47673035 70.90370178 C-0.01059067 71.26548019 -0.49791168 71.62725861 -1 72 C-1 70.68 -1 69.36 -1 68 C-1.99 68.99 -2.98 69.98 -4 71 C-5.32 70.34 -6.64 69.68 -8 69 C-8 68.34 -8 67.68 -8 67 C-8.66 67 -9.32 67 -10 67 C-10 66.01 -10 65.02 -10 64 C-9.01 64 -8.02 64 -7 64 C-6.95758277 61.66705225 -6.95907063 59.33297433 -7 57 C-8.06645115 55.70366379 -8.06645115 55.70366379 -10.5625 55.9375 C-11.366875 55.958125 -12.17125 55.97875 -13 56 C-14.23396041 57.7142289 -14.23396041 57.7142289 -15 60 C-14.21297649 62.7193293 -14.21297649 62.7193293 -13 65 C-13.61875 65.7425 -14.2375 66.485 -14.875 67.25 C-16.60437281 69.48801188 -17.86106661 71.43739987 -19 74 C-19.66 73.34 -20.32 72.68 -21 72 C-21.33 72 -21.66 72 -22 72 C-22.02541267 64.72258248 -22.04289324 57.44517646 -22.05493164 50.16772461 C-22.05995179 47.6934364 -22.06676926 45.21915115 -22.07543945 42.74487305 C-22.08760656 39.18277252 -22.09325159 35.62071131 -22.09765625 32.05859375 C-22.10281754 30.95728622 -22.10797882 29.8559787 -22.11329651 28.72129822 C-22.11399696 19.07162397 -22.08138193 13.19170102 -15.1875 5.953125 C-10.80709596 2.04204996 -5.87699947 0.41002322 0 0 Z " fill="#F6F6F6" transform="translate(105,11)"/>
<path d="M0 0 C0.79277344 0.05671875 1.58554687 0.1134375 2.40234375 0.171875 C4.35231735 0.31283695 6.30128671 0.4675712 8.25 0.625 C8.32430494 4.82418185 8.37867413 9.02301274 8.41479492 13.22265625 C8.42985681 14.65045846 8.45031062 16.0782146 8.47631836 17.50585938 C8.51281842 19.56131373 8.52975166 21.61615505 8.54296875 23.671875 C8.5586792 24.90776367 8.57438965 26.14365234 8.59057617 27.41699219 C8.22501292 30.86036218 7.68197609 32.21299684 5.25 34.625 C-0.98898834 36.9099798 -6.62333988 37.07566405 -12.75 34.625 C-12.75 33.965 -12.75 33.305 -12.75 32.625 C-13.41 32.625 -14.07 32.625 -14.75 32.625 C-14.75 30.645 -14.75 28.665 -14.75 26.625 C-13.43 26.295 -12.11 25.965 -10.75 25.625 C-11.554375 24.67625 -12.35875 23.7275 -13.1875 22.75 C-16.54050018 18.79517927 -17.09332596 16.16779891 -17.03515625 11.015625 C-16.56363633 7.06260871 -15.10503121 4.83045914 -12.75 1.625 C-8.91532325 -1.29800115 -4.53315493 -0.37588349 0 0 Z M-5.75 6.625 C-8.19576827 10.29365241 -7.98607254 12.29700343 -7.75 16.625 C-7.42 17.285 -7.09 17.945 -6.75 18.625 C-3.83365871 18.8752157 -3.83365871 18.8752157 -0.75 18.625 C1.56282587 15.15576119 1.67478586 13.70294425 1.25 9.625 C0.12359395 7.66459519 0.12359395 7.66459519 -1.75 6.625 C-3.07 6.625 -4.39 6.625 -5.75 6.625 Z M0.25 24.625 C-2.06 25.285 -4.37 25.945 -6.75 26.625 C-6.75 27.285 -6.75 27.945 -6.75 28.625 C-4.40466049 29.39456136 -4.40466049 29.39456136 -1.75 29.625 C0.0854799 28.29121425 0.0854799 28.29121425 1.25 26.625 C0.92 25.965 0.59 25.305 0.25 24.625 Z " fill="#DDDDDD" transform="translate(422.75,91.375)"/>
<path d="M0 0 C2.64 0 5.28 0 8 0 C8 2.97 8 5.94 8 9 C8.99 8.67 9.98 8.34 11 8 C15.37197481 7.51422502 17.28535006 7.47178048 20.875 10.125 C24.50455945 15.03558043 24.13756413 20.36338232 24.125 26.3125 C24.12886719 28.16294922 24.12886719 28.16294922 24.1328125 30.05078125 C24 33 24 33 23 34 C20.36 34 17.72 34 15 34 C14.67 28.39 14.34 22.78 14 17 C12.68 16.67 11.36 16.34 10 16 C8.414131 19.171738 8.62133555 22.63513822 8.4375 26.125 C8.39431641 26.87910156 8.35113281 27.63320312 8.30664062 28.41015625 C8.2005168 30.27321888 8.09974999 32.13658524 8 34 C5.36 34 2.72 34 0 34 C0 22.78 0 11.56 0 0 Z " fill="#CFCFCF" transform="translate(281,83)"/>
<path d="M0 0 C2.75743876 2.38893312 3.93832702 4.48831245 5 8 C5 9.98 5 11.96 5 14 C-0.28 14 -5.56 14 -11 14 C-10.67 14.99 -10.34 15.98 -10 17 C-8.35 17.33 -6.7 17.66 -5 18 C-4.67 17.01 -4.34 16.02 -4 15 C-1.36 15 1.28 15 4 15 C4 19.73899834 3.22727238 20.68550404 0 24 C-4.86856823 26.89482435 -9.15666231 25.65615485 -14.4375 24.4375 C-14.953125 24.293125 -15.46875 24.14875 -16 24 C-16 23.34 -16 22.68 -16 22 C-16.66 22 -17.32 22 -18 22 C-21.15934286 16.79786919 -20.70735302 10.87030081 -20 5 C-18.36833494 1.2114558 -15.81562538 -0.53657649 -12.25 -2.5625 C-7.70574534 -3.17422659 -4.08062151 -2.02865183 0 0 Z M-10 5 C-10.33 5.99 -10.66 6.98 -11 8 C-8.69 8 -6.38 8 -4 8 C-4.33 7.01 -4.66 6.02 -5 5 C-6.65 5 -8.3 5 -10 5 Z " fill="#D7D7D7" transform="translate(247,93)"/>
<path d="M0 0 C4.29587351 4.29587351 4 7.84924327 4 14 C-1.28 14 -6.56 14 -12 14 C-11.01 15.32 -10.02 16.64 -9 18 C-6.3094472 16.77992056 -6.3094472 16.77992056 -4 15 C-1.32941149 14.85884839 1.32432238 14.95752893 4 15 C3.125 19.75 3.125 19.75 2 22 C1.34 22 0.68 22 0 22 C0 22.66 0 23.32 0 24 C-4.76829066 25.97709613 -7.97260982 26.18829222 -13 25 C-15.9375 23.5625 -15.9375 23.5625 -18 22 C-18 21.34 -18 20.68 -18 20 C-18.66 20 -19.32 20 -20 20 C-21.79936071 14.60191788 -21.72926101 9.18408339 -19.5 4 C-19.005 3.01 -18.51 2.02 -18 1 C-17.34 1 -16.68 1 -16 1 C-16 0.34 -16 -0.32 -16 -1 C-9.9341623 -3.45214716 -5.85284923 -2.97324741 0 0 Z M-11 5 C-11.33 5.99 -11.66 6.98 -12 8 C-9.69 8 -7.38 8 -5 8 C-5.33 7.01 -5.66 6.02 -6 5 C-7.65 5 -9.3 5 -11 5 Z " fill="#D6D6D6" transform="translate(469,93)"/>
<path d="M0 0 C2.0625 1.875 2.0625 1.875 3 4 C3 5.32 3 6.64 3 8 C0.36 8 -2.28 8 -5 8 C-5 7.34 -5 6.68 -5 6 C-6.65 6 -8.3 6 -10 6 C-10 6.66 -10 7.32 -10 8 C-8.80375 8.0825 -7.6075 8.165 -6.375 8.25 C-2.03792635 8.82879097 0.79214014 9.87233664 4 13 C4.9433163 16.79665322 4.55126541 19.89746918 2.8125 23.375 C-0.41117828 26.26519432 -3.15671549 26.92333777 -7.4375 27.3125 C-12.25900066 26.88956135 -15.57575236 25.42424764 -19 22 C-19.39764263 20.01178687 -19.73775349 18.01055661 -20 16 C-18.68 15.34 -17.36 14.68 -16 14 C-16.495 13.67 -16.99 13.34 -17.5 13 C-19.54460552 10.27385931 -19.43014153 8.2042911 -19.27734375 4.8671875 C-19 3 -19 3 -17.9375 1.125 C-11.85707433 -2.40556974 -6.42127821 -2.51211682 0 0 Z M-11 16 C-10.34 17.32 -9.68 18.64 -9 20 C-7.35 19.67 -5.7 19.34 -4 19 C-4 18.34 -4 17.68 -4 17 C-6.31 16.67 -8.62 16.34 -11 16 Z " fill="#D4D4D4" transform="translate(494,92)"/>
<path d="M0 0 C3.47815446 2.96666116 4.81686957 5.66801556 6 10.0625 C6.1586642 14.82242589 4.88042113 18.43882362 3.125 22.8125 C2.465 22.8125 1.805 22.8125 1.125 22.8125 C1.125 23.4725 1.125 24.1325 1.125 24.8125 C-3.93632317 27.26647487 -8.45961513 27.63475868 -13.8125 25.8125 C-14.493125 25.4825 -15.17375 25.1525 -15.875 24.8125 C-15.875 24.1525 -15.875 23.4925 -15.875 22.8125 C-16.865 22.4825 -17.855 22.1525 -18.875 21.8125 C-21.74614013 17.4913861 -21.37160627 12.80221064 -20.875 7.8125 C-19.58820376 3.88062259 -18.60664943 2.33510674 -15.25 -0.0625 C-9.95629271 -1.8270691 -5.20987219 -2.15190373 0 0 Z M-11.875 7.8125 C-12.35222472 9.91092369 -12.35222472 9.91092369 -12.25 12.25 C-12.25773437 13.03246094 -12.26546875 13.81492187 -12.2734375 14.62109375 C-11.79448725 17.2553201 -10.90946037 18.13864504 -8.875 19.8125 C-5.22183329 18.56273244 -4.09434164 18.14151247 -1.875 14.8125 C-2.07380774 11.63157619 -2.34916443 9.5295485 -4.25 6.9375 C-7.3833264 4.76827403 -8.8771294 5.8139196 -11.875 7.8125 Z " fill="#D7D7D7" transform="translate(398.875,92.1875)"/>
<path d="M0 0 C0 0.66 0 1.32 0 2 C0.639375 2.268125 1.27875 2.53625 1.9375 2.8125 C4 4 4 4 5 7 C6.15331644 18.41783275 6.15331644 18.41783275 2.75 22.625 C-1.99272821 26.72099255 -4.63259221 27.44683563 -11 27 C-13.9375 26 -13.9375 26 -16 25 C-16 24.34 -16 23.68 -16 23 C-16.66 23 -17.32 23 -18 23 C-21.11764972 17.9338192 -21.74758932 13.79381724 -21 8 C-19.69191397 4.07574192 -18.7035504 2.49084912 -15.3125 0.125 C-10.22110589 -1.60415272 -5.18025375 -1.72675125 0 0 Z M-11.875 8.125 C-13.26504056 11.67732588 -13.25111111 13.40305555 -12 17 C-9.55690423 18.91744593 -9.55690423 18.91744593 -7 20 C-4.82271927 19.12355567 -4.82271927 19.12355567 -3 17 C-2.63524155 13.97465051 -2.77106703 11.03336186 -3 8 C-3.66 8 -4.32 8 -5 8 C-5 7.34 -5 6.68 -5 6 C-8.44060512 5.53505336 -9.51389929 5.44908586 -11.875 8.125 Z " fill="#D9D9D9" transform="translate(357,92)"/>
<path d="M0 0 C2.47560825 2.22135659 3.85171302 3.93790164 4.31860352 7.28198242 C4.3935899 9.96954537 4.34873392 12.6257982 4.25 15.3125 C4.23195313 16.24384766 4.21390625 17.17519531 4.1953125 18.13476562 C4.14836161 20.42362149 4.07662323 22.71194527 4 25 C1.03 25 -1.94 25 -5 25 C-5.33 19.06 -5.66 13.12 -6 7 C-7.32 6.67 -8.64 6.34 -10 6 C-11.18031238 9.84841348 -11.33235351 13.758279 -11.5625 17.75 C-11.60568359 18.44738281 -11.64886719 19.14476563 -11.69335938 19.86328125 C-11.79889596 21.57531922 -11.8998991 23.28763561 -12 25 C-14.64 25 -17.28 25 -20 25 C-20 16.75 -20 8.5 -20 0 C-5.49886253 -2.69093273 -5.49886253 -2.69093273 0 0 Z " fill="#D7D7D7" transform="translate(329,92)"/>
<path d="M0 0 C9.9 0 19.8 0 30 0 C30 2.31 30 4.62 30 7 C29.67 7.33 29.34 7.66 29 8 C25.7 8 22.4 8 19 8 C19 16.58 19 25.16 19 34 C16.36 34 13.72 34 11 34 C11 25.42 11 16.84 11 8 C7.7 8 4.4 8 1 8 C0.67 7.67 0.34 7.34 0 7 C0 4.69 0 2.38 0 0 Z " fill="#D6D6D6" transform="translate(198,83)"/>
<path d="M0 0 C0 0.66 0 1.32 0 2 C0.66 2 1.32 2 2 2 C4.1519437 5.22791555 4.20086443 6.28400809 4 10 C1.36 10 -1.28 10 -4 10 C-4.33 8.68 -4.66 7.36 -5 6 C-6.65 6.66 -8.3 7.32 -10 8 C-10 11.63 -10 15.26 -10 19 C-8.35 19 -6.7 19 -5 19 C-4.67 18.01 -4.34 17.02 -4 16 C-1.36 16 1.28 16 4 16 C3.125 20.75 3.125 20.75 2 23 C1.34 23 0.68 23 0 23 C0 23.66 0 24.32 0 25 C-4.75710213 26.97245698 -7.99172213 27.27483437 -13 26 C-16.91614547 23.56328726 -18.90096703 21.49604398 -20 17 C-20.58696431 11.339987 -20.41331314 6.77863839 -17 2 C-11.64870978 -1.64860697 -6.12377014 -1.95960645 0 0 Z " fill="#CECECE" transform="translate(273,92)"/>
<path d="M0 0 C2.64 0 5.28 0 8 0 C8 11.22 8 22.44 8 34 C5.36 34 2.72 34 0 34 C0 22.78 0 11.56 0 0 Z " fill="#DFDFDF" transform="translate(367,83)"/>
<path d="M0 0 C1.4540625 0.0309375 1.4540625 0.0309375 2.9375 0.0625 C2.9375 3.0325 2.9375 6.0025 2.9375 9.0625 C3.9275 9.3925 4.9175 9.7225 5.9375 10.0625 C5.9375 11.0525 5.9375 12.0425 5.9375 13.0625 C4.9475 13.3925 3.9575 13.7225 2.9375 14.0625 C2.6075 20.3325 2.2775 26.6025 1.9375 33.0625 C-0.0425 33.0625 -2.0225 33.0625 -4.0625 33.0625 C-4.08715392 28.52352295 -4.10533789 23.98458457 -4.11743164 19.44555664 C-4.1224714 17.90030234 -4.1293032 16.35505284 -4.13793945 14.80981445 C-4.15002076 12.59324971 -4.15573173 10.37674782 -4.16015625 8.16015625 C-4.16531754 7.4653566 -4.17047882 6.77055695 -4.17579651 6.05470276 C-4.17599277 4.3902067 -4.12439129 2.72584501 -4.0625 1.0625 C-3.0625 0.0625 -3.0625 0.0625 0 0 Z " fill="#F3F3F3" transform="translate(286.0625,82.9375)"/>
<path d="M0 0 C2.64 0 5.28 0 8 0 C8 8.25 8 16.5 8 25 C5.36 25 2.72 25 0 25 C0 16.75 0 8.5 0 0 Z " fill="#E1E1E1" transform="translate(437,92)"/>
<path d="M0 0 C2.64 0 5.28 0 8 0 C8 2.64 8 5.28 8 8 C5.36 8 2.72 8 0 8 C0 5.36 0 2.72 0 0 Z " fill="#BABABA" transform="translate(437,82)"/>
<path d="M0 0 C2.54619895 1.19353076 3.55436152 2.55219651 5 4.9375 C5 5.5975 5 6.2575 5 6.9375 C2.04335481 8.4158226 -0.74229737 7.99782783 -4 7.9375 C-4.6875 5.625 -4.6875 5.625 -5 2.9375 C-3.51401043 0.59120068 -2.80942669 -0.08779458 0 0 Z " fill="#B9B9B9" transform="translate(94,78.0625)"/>
<path d="M0 0 C0 3 0 3 -2.08203125 5.375 C-3.43361328 6.674375 -3.43361328 6.674375 -4.8125 8 C-5.70582031 8.86625 -6.59914063 9.7325 -7.51953125 10.625 C-8.74736328 11.800625 -8.74736328 11.800625 -10 13 C-11.00321713 13.99677248 -12.00497091 14.99505368 -13 16 C-13.66 15.67 -14.32 15.34 -15 15 C-14.34 14.01 -13.68 13.02 -13 12 C-12.34 12 -11.68 12 -11 12 C-10.76539063 11.42765625 -10.53078125 10.8553125 -10.2890625 10.265625 C-8.70593415 7.48315699 -6.8008475 5.82929786 -4.375 3.75 C-3.55773438 3.04359375 -2.74046875 2.3371875 -1.8984375 1.609375 C-1.27195312 1.07828125 -0.64546875 0.5471875 0 0 Z " fill="#A0A0A0" transform="translate(29,50)"/>
<path d="M0 0 C0.99 0.33 1.98 0.66 3 1 C3 2.65 3 4.3 3 6 C1.35 6.33 -0.3 6.66 -2 7 C-2.33 5.35 -2.66 3.7 -3 2 C-2.01 1.34 -1.02 0.68 0 0 Z " fill="#A9A9A9" transform="translate(94,67)"/>
<path d="M0 0 C0.33 0 0.66 0 1 0 C1.125 6.75 1.125 6.75 0 9 C-1.65 9 -3.3 9 -5 9 C-4.67 8.34 -4.34 7.68 -4 7 C-3.34 7.33 -2.68 7.66 -2 8 C-2.66 7.01 -3.32 6.02 -4 5 C-3.625 2.8125 -3.625 2.8125 -3 1 C-2.34 1.33 -1.68 1.66 -1 2 C-0.67 1.34 -0.34 0.68 0 0 Z " fill="#C3C3C3" transform="translate(106,80)"/>
<path d="M0 0 C0.66 0 1.32 0 2 0 C2.66 1.98 3.32 3.96 4 6 C0.25 9 0.25 9 -2 9 C-1.34 6.03 -0.68 3.06 0 0 Z " fill="#B7B7B7" transform="translate(109,103)"/>
<path d="M0 0 C-0.25 1.875 -0.25 1.875 -1 4 C-3.5164751 5.64872507 -6.07459296 6.37312706 -9 7 C-3.34042553 0 -3.34042553 0 0 0 Z " fill="#B1B1B1" transform="translate(96,14)"/>
<path d="M0 0 C0.99 0.33 1.98 0.66 3 1 C1.35830472 3.02054804 -0.30911778 5.02043058 -2 7 C-2.33 7 -2.66 7 -3 7 C-3 5.35 -3 3.7 -3 2 C-2.01 2 -1.02 2 0 2 C0 1.34 0 0.68 0 0 Z " fill="#B3B3B1" transform="translate(113,75)"/>
</svg>
