<svg xmlns="http://www.w3.org/2000/svg" width="500" height="500" viewBox="0 0 500 500">
<g>
<path d="M 447.90 324.37 C446.94,325.20 439.86,325.48 432.00,325.01 L 423.50 324.50 L 432.83 323.87 C437.96,323.53 442.59,322.81 443.11,322.29 C444.01,321.39 440.75,311.13 436.65,302.00 C435.79,300.08 433.30,294.00 431.13,288.50 C428.96,283.00 426.47,277.15 425.60,275.50 C424.73,273.85 424.01,271.95 424.01,271.28 C424.00,270.61 422.81,267.46 421.36,264.28 C419.90,261.10 417.69,255.57 416.44,252.00 C415.19,248.43 413.25,243.25 412.14,240.50 C411.02,237.75 408.01,230.10 405.45,223.50 C402.90,216.90 399.68,208.80 398.30,205.50 C396.93,202.20 394.48,195.90 392.86,191.50 C391.25,187.10 389.10,181.70 388.10,179.50 C387.10,177.30 385.70,173.70 385.00,171.50 C382.82,164.63 381.12,163.72 371.68,164.34 C358.37,165.22 354.74,166.15 353.40,169.00 C351.70,172.59 344.25,191.36 341.49,199.00 C340.20,202.57 338.21,207.28 337.07,209.46 C335.93,211.64 335.00,214.05 335.00,214.82 C335.00,216.08 328.59,232.14 322.56,246.00 C321.24,249.02 317.60,258.48 314.47,267.00 C311.34,275.52 308.29,283.40 307.69,284.50 C307.09,285.60 305.42,289.88 303.98,294.00 C301.75,300.37 300.98,301.54 298.88,301.80 C297.01,302.02 295.63,301.12 293.20,298.11 C289.44,293.42 289.38,292.70 291.98,282.38 C293.71,275.55 293.97,271.09 293.98,248.81 C293.99,231.66 293.65,222.90 292.93,222.46 C292.34,222.10 289.28,221.56 286.12,221.28 C286.00,221.27 285.87,221.25 285.74,221.24 C282.72,220.97 280.73,220.79 279.43,221.65 C276.91,223.33 277.02,228.95 277.34,245.49 L 277.36 246.57 C277.92,275.83 277.65,276.11 265.28,259.27 C257.21,248.27 249.65,237.64 246.95,233.50 C245.88,231.85 241.62,225.77 237.49,220.00 C233.35,214.23 228.29,207.03 226.23,204.01 C224.18,200.99 220.81,196.26 218.75,193.51 C214.70,188.09 213.87,184.09 216.75,183.86 C217.71,183.79 231.32,183.45 247.00,183.11 L 275.50 182.50 L 275.81 177.53 C275.99,174.79 276.60,171.98 277.19,171.28 C277.94,170.36 277.91,170.00 277.06,170.00 C276.41,170.00 276.15,169.57 276.47,169.05 C278.08,166.44 271.84,166.00 233.19,166.00 C199.39,166.00 193.06,166.22 192.03,167.46 C191.17,168.50 191.03,171.10 191.53,176.45 C192.21,183.78 192.45,184.30 200.70,196.74 C210.63,211.69 213.35,216.67 212.04,217.47 C211.07,218.08 203.79,209.18 200.76,203.67 C199.80,201.92 198.45,200.05 197.76,199.50 C195.96,198.07 189.52,189.90 188.16,187.32 C186.85,184.86 186.58,165.21 187.82,163.26 C188.43,162.29 198.42,162.07 232.55,162.27 C256.72,162.40 277.06,162.88 277.75,163.32 C278.62,163.87 279.00,167.29 279.00,174.52 L 279.00 184.92 L 275.11 185.97 C272.71,186.62 261.77,186.88 246.52,186.66 C219.85,186.27 218.41,186.56 222.77,191.30 C223.88,192.51 226.94,196.88 229.57,201.00 C232.20,205.12 234.66,208.73 235.02,209.00 C235.39,209.27 237.87,212.65 240.54,216.50 C247.93,227.18 251.97,232.92 256.71,239.50 C259.09,242.80 262.98,248.43 265.35,252.00 C270.43,259.67 272.75,261.92 273.42,259.86 C273.67,259.11 274.04,249.60 274.25,238.73 C274.50,226.06 275.04,218.57 275.75,217.85 C277.15,216.45 293.53,216.68 296.25,218.13 C298.15,219.15 298.19,220.16 297.72,249.84 C297.33,274.84 296.93,281.46 295.56,285.70 C294.28,289.67 294.14,291.39 294.97,292.95 C296.58,295.95 298.51,295.46 299.74,291.75 C300.34,289.96 302.93,283.55 305.50,277.50 C310.33,266.12 318.50,245.44 319.94,240.93 C320.39,239.52 321.24,237.49 321.84,236.43 C323.23,233.95 330.77,215.09 333.12,208.21 C334.11,205.30 336.02,200.35 337.35,197.21 C338.68,194.07 341.87,185.88 344.44,179.00 C347.01,172.12 349.76,165.63 350.55,164.56 C351.87,162.79 353.38,162.62 368.59,162.56 C377.72,162.52 385.60,162.75 386.10,163.06 C386.61,163.38 387.89,166.08 388.95,169.07 C390.00,172.05 392.47,178.46 394.44,183.31 C396.40,188.15 398.00,192.70 398.00,193.42 C398.00,194.13 399.62,198.23 401.60,202.52 C403.59,206.81 406.02,212.61 407.01,215.41 C410.54,225.38 422.99,256.67 427.94,268.00 C429.50,271.58 432.92,280.12 435.54,287.00 C438.16,293.88 442.07,303.75 444.23,308.95 C447.69,317.30 449.13,323.33 447.90,324.37 ZM 398.00 268.73 C396.88,269.64 388.90,269.95 366.69,269.91 C341.31,269.88 336.80,269.65 336.32,268.39 C335.27,265.66 336.78,259.07 340.01,252.25 C341.78,248.54 344.70,241.45 346.52,236.50 C348.33,231.55 351.91,222.55 354.47,216.50 C357.03,210.45 360.04,202.80 361.15,199.50 C363.37,192.96 365.11,190.46 368.01,189.71 C370.72,189.00 372.49,191.46 375.94,200.77 C377.62,205.29 380.33,212.58 381.96,216.97 C383.59,221.35 385.89,226.82 387.07,229.14 C388.25,231.45 390.02,235.63 391.00,238.42 C391.99,241.21 393.93,246.20 395.32,249.50 C396.71,252.80 398.04,256.85 398.27,258.50 C398.50,260.15 399.00,262.22 399.39,263.10 C400.33,265.22 399.84,267.22 398.00,268.73 ZM 341.92 265.77 C344.60,266.76 396.97,266.77 396.37,265.78 C396.10,265.35 396.70,264.99 397.69,264.98 C398.87,264.97 399.09,264.71 398.33,264.22 C397.15,263.48 392.00,253.88 392.00,252.43 C392.00,252.01 390.70,248.70 389.11,245.08 C381.38,227.46 377.63,218.60 373.65,208.55 C371.27,202.53 368.85,197.45 368.28,197.26 C367.71,197.07 364.87,202.90 361.97,210.21 C359.07,217.52 355.24,226.66 353.46,230.52 C351.69,234.38 349.54,239.56 348.70,242.02 C347.86,244.48 345.85,249.43 344.25,253.00 C339.95,262.56 339.53,264.89 341.92,265.77 ZM 119.86 324.11 C119.11,324.58 102.67,324.98 83.33,324.98 L 48.16 325.00 L 46.95 321.34 C46.10,318.79 45.98,315.21 46.54,309.59 C46.98,305.14 47.29,296.77 47.24,291.00 C47.18,285.23 47.15,276.45 47.18,271.50 C47.48,223.09 47.20,180.87 46.54,173.46 C46.48,172.79 46.42,172.16 46.36,171.57 C45.98,167.55 45.74,165.05 46.84,163.50 C48.64,160.97 54.03,160.99 68.25,161.03 C69.53,161.03 70.89,161.03 72.32,161.04 C98.77,161.08 118.57,162.27 128.00,164.40 C162.61,172.19 183.22,190.46 191.01,220.25 C192.48,225.87 193.79,229.00 194.67,229.00 C195.42,229.00 197.72,227.99 199.77,226.75 C201.82,225.51 205.19,223.64 207.25,222.59 C209.31,221.54 211.00,220.31 211.00,219.84 C211.00,218.08 213.90,219.09 214.52,221.08 C214.57,221.21 214.61,221.34 214.65,221.46 C214.87,222.15 215.02,222.60 214.92,222.97 C214.73,223.71 213.62,224.20 210.42,225.81 C208.18,226.94 203.59,229.69 200.22,231.93 C196.85,234.17 193.68,236.00 193.17,236.00 C190.81,236.00 189.79,233.53 186.56,220.00 C184.88,212.96 184.23,211.37 181.05,206.50 C179.61,204.30 177.78,201.17 176.97,199.55 C173.97,193.51 161.24,182.72 149.50,176.25 C144.57,173.54 130.09,168.71 122.50,167.25 C111.33,165.11 52.37,164.80 51.08,166.88 C50.61,167.63 49.93,173.71 49.56,180.38 C48.74,195.50 49.58,317.86 50.52,320.25 C50.92,321.27 52.32,322.03 53.86,322.07 C55.82,322.12 56.06,322.31 54.80,322.82 C51.76,324.04 102.06,324.22 110.78,323.03 C118.93,321.91 122.63,322.35 119.86,324.11 ZM 233.00 308.68 C233.00,311.04 220.27,309.34 217.00,306.54 C216.18,305.84 213.20,304.51 210.39,303.60 C204.11,301.55 201.72,299.09 199.15,292.00 C196.96,285.99 195.93,269.14 197.38,263.17 C199.26,255.45 208.80,242.00 212.39,242.00 C213.01,242.00 214.05,241.14 214.71,240.10 C215.36,239.05 218.18,237.44 220.98,236.51 C227.15,234.46 227.52,234.68 233.67,244.18 C240.15,254.17 239.08,255.31 231.04,246.97 C224.28,239.96 223.98,239.78 220.36,240.46 C215.91,241.29 206.42,250.41 203.59,256.57 C202.59,258.73 201.13,261.85 200.33,263.50 C198.20,267.88 197.44,279.20 199.01,283.20 C200.54,287.12 207.02,297.00 208.06,297.00 C208.46,297.00 210.30,298.43 212.14,300.18 C214.88,302.78 216.99,303.64 223.50,304.84 C237.08,307.33 243.17,306.48 255.50,300.36 C264.76,295.76 265.61,294.03 261.58,287.94 C258.85,283.82 258.36,282.00 259.99,282.00 C261.51,282.00 268.29,292.73 267.54,293.94 C267.18,294.52 265.06,297.01 262.83,299.46 C257.48,305.33 246.05,309.47 238.10,308.42 C235.13,308.02 233.00,308.13 233.00,308.68 ZM 94.00 302.56 C90.56,303.32 72.86,303.53 71.73,302.83 C70.78,302.25 70.47,288.66 70.35,243.52 C70.22,190.03 70.35,184.90 71.85,184.23 C74.27,183.16 108.00,183.58 118.80,184.82 C125.71,185.61 129.32,186.58 132.80,188.58 C135.39,190.06 138.73,191.92 140.23,192.70 C141.73,193.48 143.26,194.61 143.62,195.20 C144.49,196.60 137.59,195.39 133.63,193.44 C126.08,189.74 115.64,188.14 95.50,187.60 C80.18,187.19 75.11,187.36 73.83,188.33 C72.41,189.42 72.22,191.09 72.60,199.55 C73.21,213.03 73.11,244.60 72.38,272.58 C71.85,292.80 71.97,296.05 73.41,298.83 L 75.05 302.00 L 85.28 302.12 C90.90,302.18 94.82,302.38 94.00,302.56 ZM 422.32 320.61 C421.26,323.36 418.86,321.56 417.50,317.00 C417.08,315.62 415.23,311.55 413.37,307.93 C411.52,304.32 409.99,300.72 409.98,299.93 C409.95,297.83 406.09,289.68 404.70,288.78 C404.04,288.35 391.12,288.02 376.00,288.05 C360.88,288.08 344.85,287.79 340.39,287.42 L 332.28 286.74 L 329.55 292.62 C328.05,295.85 326.46,299.20 326.02,300.06 C325.58,300.92 323.79,305.18 322.05,309.53 C318.81,317.64 317.41,320.00 315.88,320.00 C314.34,320.00 314.92,316.69 317.61,310.00 C319.04,306.42 320.85,301.81 321.61,299.75 C324.60,291.68 326.37,287.94 327.71,286.83 C328.48,286.19 331.52,285.76 334.47,285.88 C337.41,286.00 340.07,285.69 340.38,285.19 C340.79,284.53 403.34,284.28 408.11,284.92 C408.82,285.01 414.00,296.27 414.00,297.70 C414.00,298.86 418.43,310.05 420.99,315.36 C422.02,317.48 422.61,319.84 422.32,320.61 ZM 207.76 321.77 C208.45,323.86 204.57,323.13 201.00,320.50 C199.14,319.12 197.12,318.00 196.52,318.00 C193.93,318.00 183.77,306.98 178.37,298.31 C177.34,296.67 176.51,297.20 169.74,303.74 C162.58,310.65 151.89,316.94 147.16,317.03 C146.25,317.05 144.63,317.72 143.56,318.53 C141.32,320.22 139.00,320.46 139.00,319.00 C139.00,317.96 150.80,312.00 152.85,312.00 C153.48,312.00 154.00,311.63 154.00,311.17 C154.00,310.71 156.14,308.85 158.75,307.02 C161.36,305.20 166.48,300.80 170.13,297.25 C177.96,289.62 179.74,289.57 183.45,296.90 C187.23,304.36 195.61,313.68 201.77,317.28 C204.84,319.07 207.53,321.09 207.76,321.77 ZM 129.50 301.89 C122.03,304.45 111.71,305.24 109.27,303.45 C107.64,302.26 107.69,302.12 110.00,301.64 C111.38,301.35 114.75,300.84 117.50,300.50 C130.47,298.93 143.89,291.55 153.60,280.66 C159.13,274.46 164.00,265.58 164.00,261.72 C164.00,260.30 164.76,258.38 165.69,257.46 C167.27,255.88 167.42,255.91 168.21,258.05 C169.37,261.18 165.88,271.32 161.12,278.69 C154.35,289.16 143.53,297.09 129.50,301.89 ZM 247.59 326.51 C244.89,327.33 241.74,327.93 240.59,327.85 C239.44,327.76 233.51,327.38 227.41,327.01 C216.37,326.32 214.00,325.77 214.00,323.89 C214.00,322.60 226.26,323.92 227.15,325.30 C227.59,325.98 230.73,325.91 236.65,325.11 C241.52,324.45 247.04,323.71 248.92,323.48 C250.81,323.24 252.81,322.59 253.37,322.03 C253.94,321.46 255.12,321.00 256.00,321.00 C256.88,321.00 261.51,318.55 266.28,315.56 C271.98,311.97 275.19,310.49 275.64,311.23 C277.08,313.55 259.86,324.99 254.90,325.01 C253.58,325.02 250.29,325.69 247.59,326.51 ZM 169.41 243.91 C169.48,251.68 169.17,254.44 168.19,254.77 C167.15,255.12 167.02,253.92 167.57,249.09 C168.26,242.95 167.30,238.05 163.32,227.50 C162.49,225.30 161.89,223.38 161.98,223.23 C162.08,223.09 161.84,221.53 161.45,219.77 C160.56,215.73 156.74,209.68 151.72,204.37 C146.18,198.51 148.78,197.39 154.62,203.12 C163.91,212.23 169.28,227.04 169.41,243.91 ZM 292.90 324.62 C292.27,325.38 291.70,326.00 291.63,326.00 C291.56,326.00 289.48,323.66 287.00,320.80 C282.16,315.22 279.00,310.54 279.00,308.98 C279.00,306.71 282.69,308.32 285.00,311.59 C286.38,313.53 288.97,316.95 290.77,319.18 C293.33,322.36 293.80,323.54 292.90,324.62 Z" fill="rgb(248,248,248)"/>
<path d="M 0.00 250.00 L 0.00 0.00 L 250.00 0.00 L 500.00 0.00 L 500.00 250.00 L 500.00 500.00 L 250.00 500.00 L 0.00 500.00 L 0.00 250.00 ZM 247.59 326.51 C250.29,325.69 253.58,325.02 254.90,325.01 C259.86,324.99 277.08,313.55 275.64,311.23 C275.19,310.49 271.98,311.97 266.28,315.56 C261.51,318.55 256.88,321.00 256.00,321.00 C255.12,321.00 253.94,321.46 253.37,322.03 C252.81,322.59 250.81,323.24 248.92,323.48 C247.04,323.71 241.52,324.45 236.65,325.11 C230.73,325.91 227.59,325.98 227.15,325.30 C226.26,323.92 214.00,322.60 214.00,323.89 C214.00,325.77 216.37,326.32 227.41,327.01 C233.51,327.38 239.44,327.76 240.59,327.85 C241.74,327.93 244.89,327.33 247.59,326.51 ZM 292.90 324.62 C293.80,323.54 293.33,322.36 290.77,319.18 C288.97,316.95 286.38,313.53 285.00,311.59 C282.69,308.32 279.00,306.71 279.00,308.98 C279.00,310.54 282.16,315.22 287.00,320.80 C289.48,323.66 291.56,326.00 291.63,326.00 C291.70,326.00 292.27,325.38 292.90,324.62 ZM 447.90 324.37 C449.13,323.33 447.69,317.30 444.23,308.95 C442.07,303.75 438.16,293.88 435.54,287.00 C432.92,280.12 429.50,271.58 427.94,268.00 C422.99,256.67 410.54,225.38 407.01,215.41 C406.02,212.61 403.59,206.81 401.60,202.52 C399.62,198.23 398.00,194.13 398.00,193.42 C398.00,192.70 396.40,188.15 394.44,183.31 C392.47,178.46 390.00,172.05 388.95,169.07 C387.89,166.08 386.61,163.38 386.10,163.06 C385.60,162.75 377.72,162.52 368.59,162.56 C353.38,162.62 351.87,162.79 350.55,164.56 C349.76,165.63 347.01,172.12 344.44,179.00 C341.87,185.88 338.68,194.07 337.35,197.21 C336.02,200.35 334.11,205.30 333.12,208.21 C330.77,215.09 323.23,233.95 321.84,236.43 C321.24,237.49 320.39,239.52 319.94,240.93 C318.50,245.44 310.33,266.12 305.50,277.50 C302.93,283.55 300.34,289.96 299.74,291.75 C298.51,295.46 296.58,295.95 294.97,292.95 C294.14,291.39 294.28,289.67 295.56,285.70 C296.93,281.46 297.33,274.84 297.72,249.84 C298.19,220.16 298.15,219.15 296.25,218.13 C293.53,216.68 277.15,216.45 275.75,217.85 C275.04,218.57 274.50,226.06 274.25,238.73 C274.04,249.60 273.67,259.11 273.42,259.86 C272.75,261.92 270.43,259.67 265.35,252.00 C262.98,248.43 259.09,242.80 256.71,239.50 C251.97,232.92 247.93,227.18 240.54,216.50 C237.87,212.65 235.39,209.27 235.02,209.00 C234.66,208.73 232.20,205.12 229.57,201.00 C226.94,196.88 223.88,192.51 222.77,191.30 C218.41,186.56 219.85,186.27 246.52,186.66 C261.77,186.88 272.71,186.62 275.11,185.97 L 279.00 184.92 L 279.00 174.52 C279.00,167.29 278.62,163.87 277.75,163.32 C277.06,162.88 256.72,162.40 232.55,162.27 C198.42,162.07 188.43,162.29 187.82,163.26 C186.58,165.21 186.85,184.86 188.16,187.32 C189.52,189.90 195.96,198.07 197.76,199.50 C198.45,200.05 199.80,201.92 200.76,203.67 C203.79,209.18 211.07,218.08 212.04,217.47 C213.35,216.67 210.63,211.69 200.70,196.74 C192.45,184.30 192.21,183.78 191.53,176.45 C191.03,171.10 191.17,168.50 192.03,167.46 C193.06,166.22 199.39,166.00 233.19,166.00 C271.84,166.00 278.08,166.44 276.47,169.05 C276.15,169.57 276.41,170.00 277.06,170.00 C277.91,170.00 277.94,170.36 277.19,171.28 C276.60,171.98 275.99,174.79 275.81,177.53 L 275.50 182.50 L 247.00 183.11 C231.32,183.45 217.71,183.79 216.75,183.86 C213.87,184.09 214.70,188.09 218.75,193.51 C220.81,196.26 224.18,200.99 226.23,204.01 C228.29,207.03 233.35,214.23 237.49,220.00 C241.62,225.77 245.88,231.85 246.95,233.50 C249.65,237.64 257.21,248.27 265.28,259.27 C277.65,276.11 277.92,275.83 277.36,246.57 C276.85,220.07 276.73,220.43 286.12,221.28 C289.28,221.56 292.34,222.10 292.93,222.46 C293.65,222.90 293.99,231.66 293.98,248.81 C293.97,271.09 293.71,275.55 291.98,282.38 C289.38,292.70 289.44,293.42 293.20,298.11 C295.63,301.12 297.01,302.02 298.88,301.80 C300.98,301.54 301.75,300.37 303.98,294.00 C305.42,289.88 307.09,285.60 307.69,284.50 C308.29,283.40 311.34,275.52 314.47,267.00 C317.60,258.48 321.24,249.02 322.56,246.00 C328.59,232.14 335.00,216.08 335.00,214.82 C335.00,214.05 335.93,211.64 337.07,209.46 C338.21,207.28 340.20,202.57 341.49,199.00 C344.25,191.36 351.70,172.59 353.40,169.00 C354.74,166.15 358.37,165.22 371.68,164.34 C381.12,163.72 382.82,164.63 385.00,171.50 C385.70,173.70 387.10,177.30 388.10,179.50 C389.10,181.70 391.25,187.10 392.86,191.50 C394.48,195.90 396.93,202.20 398.30,205.50 C399.68,208.80 402.90,216.90 405.45,223.50 C408.01,230.10 411.02,237.75 412.14,240.50 C413.25,243.25 415.19,248.43 416.44,252.00 C417.69,255.57 419.90,261.10 421.36,264.28 C422.81,267.46 424.00,270.61 424.01,271.28 C424.01,271.95 424.73,273.85 425.60,275.50 C426.47,277.15 428.96,283.00 431.13,288.50 C433.30,294.00 435.79,300.08 436.65,302.00 C440.75,311.13 444.01,321.39 443.11,322.29 C442.59,322.81 437.96,323.53 432.83,323.87 L 423.50 324.50 L 432.00 325.01 C439.86,325.48 446.94,325.20 447.90,324.37 ZM 119.86 324.11 C122.63,322.35 118.93,321.91 110.78,323.03 C102.06,324.22 51.76,324.04 54.80,322.82 C56.06,322.31 55.82,322.12 53.86,322.07 C52.32,322.03 50.92,321.27 50.52,320.25 C49.58,317.86 48.74,195.50 49.56,180.38 C49.93,173.71 50.61,167.63 51.08,166.88 C52.37,164.80 111.33,165.11 122.50,167.25 C130.09,168.71 144.57,173.54 149.50,176.25 C161.24,182.72 173.97,193.51 176.97,199.55 C177.78,201.17 179.61,204.30 181.05,206.50 C184.23,211.37 184.88,212.96 186.56,220.00 C189.79,233.53 190.81,236.00 193.17,236.00 C193.68,236.00 196.85,234.17 200.22,231.93 C203.59,229.69 208.18,226.94 210.42,225.81 C215.56,223.22 215.30,223.52 214.52,221.08 C213.90,219.09 211.00,218.08 211.00,219.84 C211.00,220.31 209.31,221.54 207.25,222.59 C205.19,223.64 201.82,225.51 199.77,226.75 C197.72,227.99 195.42,229.00 194.67,229.00 C193.79,229.00 192.48,225.87 191.01,220.25 C183.22,190.46 162.61,172.19 128.00,164.40 C118.57,162.27 98.77,161.08 72.32,161.04 C43.92,160.99 45.36,160.30 46.54,173.46 C47.20,180.87 47.48,223.09 47.18,271.50 C47.15,276.45 47.18,285.23 47.24,291.00 C47.29,296.77 46.98,305.14 46.54,309.59 C45.98,315.21 46.10,318.79 46.95,321.34 L 48.16 325.00 L 83.33 324.98 C102.67,324.98 119.11,324.58 119.86,324.11 ZM 207.76 321.77 C207.53,321.09 204.84,319.07 201.77,317.28 C195.61,313.68 187.23,304.36 183.45,296.90 C179.74,289.57 177.96,289.62 170.13,297.25 C166.48,300.80 161.36,305.20 158.75,307.02 C156.14,308.85 154.00,310.71 154.00,311.17 C154.00,311.63 153.48,312.00 152.85,312.00 C150.80,312.00 139.00,317.96 139.00,319.00 C139.00,320.46 141.32,320.22 143.56,318.53 C144.63,317.72 146.25,317.05 147.16,317.03 C151.89,316.94 162.58,310.65 169.74,303.74 C176.51,297.20 177.34,296.67 178.37,298.31 C183.77,306.98 193.93,318.00 196.52,318.00 C197.12,318.00 199.14,319.12 201.00,320.50 C204.57,323.13 208.45,323.86 207.76,321.77 ZM 422.32 320.61 C422.61,319.84 422.02,317.48 420.99,315.36 C418.43,310.05 414.00,298.86 414.00,297.70 C414.00,296.27 408.82,285.01 408.11,284.92 C403.34,284.28 340.79,284.53 340.38,285.19 C340.07,285.69 337.41,286.00 334.47,285.88 C331.52,285.76 328.48,286.19 327.71,286.83 C326.37,287.94 324.60,291.68 321.61,299.75 C320.85,301.81 319.04,306.42 317.61,310.00 C314.92,316.69 314.34,320.00 315.88,320.00 C317.41,320.00 318.81,317.64 322.05,309.53 C323.79,305.18 325.58,300.92 326.02,300.06 C326.46,299.20 328.05,295.85 329.55,292.62 L 332.28 286.74 L 340.39 287.42 C344.85,287.79 360.88,288.08 376.00,288.05 C391.12,288.02 404.04,288.35 404.70,288.78 C406.09,289.68 409.95,297.83 409.98,299.93 C409.99,300.72 411.52,304.32 413.37,307.93 C415.23,311.55 417.08,315.62 417.50,317.00 C418.86,321.56 421.26,323.36 422.32,320.61 ZM 233.00 308.68 C233.00,308.13 235.13,308.02 238.10,308.42 C246.05,309.47 257.48,305.33 262.83,299.46 C265.06,297.01 267.18,294.52 267.54,293.94 C268.29,292.73 261.51,282.00 259.99,282.00 C258.36,282.00 258.85,283.82 261.58,287.94 C265.61,294.03 264.76,295.76 255.50,300.36 C243.17,306.48 237.08,307.33 223.50,304.84 C216.99,303.64 214.88,302.78 212.14,300.18 C210.30,298.43 208.46,297.00 208.06,297.00 C207.02,297.00 200.54,287.12 199.01,283.20 C197.44,279.20 198.20,267.88 200.33,263.50 C201.13,261.85 202.59,258.73 203.59,256.57 C206.42,250.41 215.91,241.29 220.36,240.46 C223.98,239.78 224.28,239.96 231.04,246.97 C239.08,255.31 240.15,254.17 233.67,244.18 C227.52,234.68 227.15,234.46 220.98,236.51 C218.18,237.44 215.36,239.05 214.71,240.10 C214.05,241.14 213.01,242.00 212.39,242.00 C208.80,242.00 199.26,255.45 197.38,263.17 C195.93,269.14 196.96,285.99 199.15,292.00 C201.72,299.09 204.11,301.55 210.39,303.60 C213.20,304.51 216.18,305.84 217.00,306.54 C220.27,309.34 233.00,311.04 233.00,308.68 ZM 129.50 301.89 C143.53,297.09 154.35,289.16 161.12,278.69 C165.88,271.32 169.37,261.18 168.21,258.05 C167.42,255.91 167.27,255.88 165.69,257.46 C164.76,258.38 164.00,260.30 164.00,261.72 C164.00,265.58 159.13,274.46 153.60,280.66 C143.89,291.55 130.47,298.93 117.50,300.50 C114.75,300.84 111.38,301.35 110.00,301.64 C107.69,302.12 107.64,302.26 109.27,303.45 C111.71,305.24 122.03,304.45 129.50,301.89 ZM 94.00 302.56 C94.82,302.38 90.90,302.18 85.28,302.12 L 75.05 302.00 L 73.41 298.83 C71.97,296.05 71.85,292.80 72.38,272.58 C73.11,244.60 73.21,213.03 72.60,199.55 C72.22,191.09 72.41,189.42 73.83,188.33 C75.11,187.36 80.18,187.19 95.50,187.60 C115.64,188.14 126.08,189.74 133.63,193.44 C137.59,195.39 144.49,196.60 143.62,195.20 C143.26,194.61 141.73,193.48 140.23,192.70 C138.73,191.92 135.39,190.06 132.80,188.58 C129.32,186.58 125.71,185.61 118.80,184.82 C108.00,183.58 74.27,183.16 71.85,184.23 C70.35,184.90 70.22,190.03 70.35,243.52 C70.47,288.66 70.78,302.25 71.73,302.83 C72.86,303.53 90.56,303.32 94.00,302.56 ZM 398.00 268.73 C399.84,267.22 400.33,265.22 399.39,263.10 C399.00,262.22 398.50,260.15 398.27,258.50 C398.04,256.85 396.71,252.80 395.32,249.50 C393.93,246.20 391.99,241.21 391.00,238.42 C390.02,235.63 388.25,231.45 387.07,229.14 C385.89,226.82 383.59,221.35 381.96,216.97 C380.33,212.58 377.62,205.29 375.94,200.77 C372.49,191.46 370.72,189.00 368.01,189.71 C365.11,190.46 363.37,192.96 361.15,199.50 C360.04,202.80 357.03,210.45 354.47,216.50 C351.91,222.55 348.33,231.55 346.52,236.50 C344.70,241.45 341.78,248.54 340.01,252.25 C336.78,259.07 335.27,265.66 336.32,268.39 C336.80,269.65 341.31,269.88 366.69,269.91 C388.90,269.95 396.88,269.64 398.00,268.73 ZM 169.41 243.91 C169.28,227.04 163.91,212.23 154.62,203.12 C148.78,197.39 146.18,198.51 151.72,204.37 C156.74,209.68 160.56,215.73 161.45,219.77 C161.84,221.53 162.08,223.09 161.98,223.23 C161.89,223.38 162.49,225.30 163.32,227.50 C167.30,238.05 168.26,242.95 167.57,249.09 C167.02,253.92 167.15,255.12 168.19,254.77 C169.17,254.44 169.48,251.68 169.41,243.91 ZM 341.92 265.77 C339.53,264.89 339.95,262.56 344.25,253.00 C345.85,249.43 347.86,244.48 348.70,242.02 C349.54,239.56 351.69,234.38 353.46,230.52 C355.24,226.66 359.07,217.52 361.97,210.21 C364.87,202.90 367.71,197.07 368.28,197.26 C368.85,197.45 371.27,202.53 373.65,208.55 C377.63,218.60 381.38,227.46 389.11,245.08 C390.70,248.70 392.00,252.01 392.00,252.43 C392.00,253.88 397.15,263.48 398.33,264.22 C399.09,264.71 398.87,264.97 397.69,264.98 C396.70,264.99 396.10,265.35 396.37,265.78 C396.97,266.77 344.60,266.76 341.92,265.77 Z" fill="rgb(254,254,254)"/>
</g>
</svg>