<?xml version="1.0" encoding="UTF-8"?>
<svg version="1.1" xmlns="http://www.w3.org/2000/svg" width="566" height="174">
<path d="M0 0 C1.68125983 3.36251967 1.13796742 7.16377815 1.12939453 10.86157227 C1.13202301 12.2401944 1.13202301 12.2401944 1.13470459 13.64666748 C1.1391252 16.70326599 1.13618077 19.75980708 1.1328125 22.81640625 C1.13348634 24.94758617 1.13445704 27.07876602 1.13571167 29.20994568 C1.13718962 33.69327521 1.13503415 38.17658488 1.13037109 42.65991211 C1.1247254 48.36185863 1.12791904 54.06375755 1.13394356 59.76570225 C1.13759098 64.17824143 1.13639069 68.59076971 1.13381577 73.00330925 C1.13315529 75.10211124 1.13394364 77.20091427 1.13629532 79.29971504 C1.18093765 130.42729552 1.18093765 130.42729552 -16.7734375 148.83203125 C-17.50820312 149.54746094 -18.24296875 150.26289063 -19 151 C-19.59039062 151.62261719 -20.18078125 152.24523437 -20.7890625 152.88671875 C-32.11813427 163.9912054 -48.51118296 168.92654873 -64 169.375 C-82.48704588 168.89938249 -98.25415311 162.36619332 -111.54296875 149.546875 C-124.96107672 135.25220721 -129.76296394 119.96613517 -129.5234375 100.66479492 C-128.91636717 83.0330554 -121.24404804 67.75473296 -108.46484375 55.5859375 C-94.31876385 43.41420256 -77.59218002 37.78189165 -59 39 C-41.45017585 41.54982415 -41.45017585 41.54982415 -36 47 C-35.82474945 49.79684797 -35.76856811 52.4932808 -35.8046875 55.2890625 C-35.8075174 56.10748627 -35.81034729 56.92591003 -35.81326294 57.76913452 C-35.82447468 60.38790393 -35.84958071 63.00633364 -35.875 65.625 C-35.88502853 67.39843257 -35.8941546 69.17187049 -35.90234375 70.9453125 C-35.92441722 75.29700626 -35.95895356 79.6484455 -36 84 C-38.85612482 82.6182302 -41.12515835 81.15699542 -43.5625 79.125 C-51.39170864 73.20959791 -60.24813825 70.64825679 -70 72 C-79.55285143 74.32613893 -87.04598185 78.50266305 -92.375 86.875 C-97.00019734 95.27073864 -98.30927206 103.61812708 -95.875 112.9375 C-92.62056846 122.715792 -87.02826068 129.03170411 -78 134 C-70.11965155 137.2232889 -60.00353889 137.695295 -52.0625 134.375 C-50.68306238 133.62823678 -49.32722561 132.83604763 -48 132 C-46.95585937 131.38125 -46.95585937 131.38125 -45.890625 130.75 C-38.06087366 125.56941265 -34.18713298 117.95442189 -32 109 C-31.81667 106.21370247 -31.71909553 103.5281156 -31.72875977 100.74487305 C-31.72091965 99.55311462 -31.72091965 99.55311462 -31.71292114 98.33728027 C-31.702731 96.62296698 -31.6969095 94.90862318 -31.69503975 93.19428062 C-31.69135385 90.47302934 -31.67456598 87.75213532 -31.65428162 85.03096008 C-31.59908738 77.29780752 -31.56824622 69.56460304 -31.54370117 61.83129883 C-31.52775019 57.08983998 -31.49745368 52.34863565 -31.45893669 47.60730934 C-31.44735403 45.80976899 -31.44135693 44.01218299 -31.44125557 42.21460533 C-31.44020951 28.6001643 -31.12142278 17.22243498 -21 7 C-14.75312129 1.96813306 -8.07805601 -0.39405151 0 0 Z M-23.5 69.625 C-25.30167924 71.96506375 -25.30167924 71.96506375 -24.8125 75.0625 C-24.26084603 77.05694126 -23.65437895 79.03686316 -23 81 C-23.804375 81.556875 -24.60875 82.11375 -25.4375 82.6875 C-28.10764072 84.76195727 -28.10764072 84.76195727 -29 87.4375 C-29 90.85822349 -28.11015305 92.32713947 -26 95 C-23.11604393 97.33834276 -21.73292264 98.03053844 -18 97.875 C-14.9317827 96.98010329 -12.63849481 95.78486414 -10 94 C-9.67 94.99 -9.34 95.98 -9 97 C-7.02 97 -5.04 97 -3 97 C-4.32 95.35 -5.64 93.7 -7 92 C-6.690625 91.278125 -6.38125 90.55625 -6.0625 89.8125 C-5.07439461 87.19692691 -4.4712246 84.74881018 -4 82 C-5.32 82 -6.64 82 -8 82 C-8.33 83.65 -8.66 85.3 -9 87 C-9.99 87 -10.98 87 -12 87 C-13.25 84.3125 -13.25 84.3125 -14 81 C-12.71274093 79.29749607 -11.37868281 77.62935241 -10 76 C-10.06817174 73.13678706 -10.62639271 71.60192285 -12.125 69.1875 C-15.97738049 66.74765902 -19.79181736 67.21468128 -23.5 69.625 Z " fill="#2293C6" transform="translate(134,2)"/>
<path d="M0 0 C12.05637235 12.04831058 18.78731632 27.96682454 19.37367249 45.02903748 C19.37145187 46.25703568 19.36923126 47.48503387 19.36694336 48.75024414 C19.36708939 49.43401627 19.36723541 50.11778839 19.36738586 50.82228088 C19.36669552 53.05684712 19.35894473 55.29132743 19.35107422 57.52587891 C19.34920691 59.08529108 19.34778449 60.64470385 19.3467865 62.20411682 C19.34298592 66.28935391 19.33317688 70.37455491 19.32208252 74.45977783 C19.31181528 78.63610343 19.30727754 82.81243492 19.30224609 86.98876953 C19.2915522 95.16912455 19.27450562 103.34945035 19.25341797 111.52978516 C12.6624778 112.98531864 7.64946592 111.49448597 1.81591797 108.11962891 C-6.45097069 102.21271353 -10.42914159 95.07687089 -12.32539368 85.26167297 C-12.97147443 81.07110097 -13.02506924 76.95005929 -13.02001953 72.71728516 C-13.04029992 70.88134146 -13.06115053 69.045404 -13.08251953 67.20947266 C-13.10509461 64.36599394 -13.12159646 61.52276347 -13.12744141 58.67919922 C-12.87417438 44.06547764 -12.87417438 44.06547764 -17.74658203 30.52978516 C-18.12427734 29.86430664 -18.50197266 29.19882813 -18.89111328 28.51318359 C-23.02307738 21.64592117 -29.8573447 17.86364064 -37.37158203 15.65478516 C-46.03580537 13.635937 -54.23020189 14.13208553 -61.95361328 18.88916016 C-63.95102972 20.37099109 -65.8562423 21.91411017 -67.74658203 23.52978516 C-68.34986328 24.02478516 -68.95314453 24.51978516 -69.57470703 25.02978516 C-70.97667049 26.18280183 -72.36351021 27.35417411 -73.74658203 28.52978516 C-74.95915769 24.89205817 -74.94689878 21.5117674 -74.98486328 17.72119141 C-74.99293503 16.95806137 -75.00100677 16.19493134 -75.00932312 15.40867615 C-75.0231407 13.7956671 -75.03387324 12.18262909 -75.04174805 10.56958008 C-75.05899599 8.10458201 -75.102904 5.64091373 -75.14697266 3.17626953 C-75.15709724 1.60792 -75.16561408 0.0395591 -75.17236328 -1.52880859 C-75.18987137 -2.26433456 -75.20737946 -2.99986053 -75.22541809 -3.75767517 C-75.21078716 -7.21211187 -75.02464437 -9.10542827 -72.90234375 -11.88964844 C-51.66561343 -27.46004392 -17.13016665 -16.11297568 0 0 Z " fill="#2293C6" transform="translate(213.74658203125,58.47021484375)"/>
<path d="M0 0 C0.94875 0.845625 1.8975 1.69125 2.875 2.5625 C12.14613926 10.46638034 20.57651339 16.77322368 33.14453125 16.33984375 C42.11978018 15.27165407 48.74054264 11.15473101 55.78515625 5.70703125 C58 4 58 4 60 3 C60.05607422 4.88332031 60.05607422 4.88332031 60.11328125 6.8046875 C60.39758579 20.91195748 60.39758579 20.91195748 65.16015625 34.00390625 C66 36 66 36 65.8984375 38.08984375 C63.71929587 42.72288835 56.97138976 44.26526424 52.453125 45.94921875 C35.42763181 51.23744012 17.00602314 49.67247417 1 42 C-9.58654122 36.03113227 -9.58654122 36.03113227 -13 32 C-13.68270331 28.81405122 -13.4827274 26.82546386 -11.828125 23.99609375 C-10.78273752 22.48998138 -9.72601353 20.99169625 -8.66015625 19.5 C-4.73810985 13.59385954 -2.01563644 6.77986802 0 0 Z " fill="#2293C6" transform="translate(137,122)"/>
<path d="M0 0 C1.17755859 -0.00773437 1.17755859 -0.00773437 2.37890625 -0.015625 C4.4375 0.25 4.4375 0.25 6.4375 2.25 C6.7675 1.59 7.0975 0.93 7.4375 0.25 C9.7475 0.25 12.0575 0.25 14.4375 0.25 C14.5119013 4.57328804 14.56621968 8.89623255 14.60229492 13.2199707 C14.61734066 14.68943782 14.63778238 16.15886034 14.66381836 17.62817383 C14.70038955 19.7457177 14.71726801 21.86266565 14.73046875 23.98046875 C14.7461792 25.25301514 14.76188965 26.52556152 14.77807617 27.83666992 C14.41322302 31.49330926 13.62174278 33.33511027 11.4375 36.25 C8.16111861 38.61587715 4.96306476 38.57918422 1 38.625 C-0.66869141 38.66753906 -0.66869141 38.66753906 -2.37109375 38.7109375 C-6.24413391 38.15155104 -7.89921109 37.08752277 -10.5625 34.25 C-10.5625 32.93 -10.5625 31.61 -10.5625 30.25 C-4.41015625 30.15234375 -4.41015625 30.15234375 -2.5625 30.25 C-2.2325 30.58 -1.9025 30.91 -1.5625 31.25 C0.43708364 31.29080783 2.43795254 31.29254356 4.4375 31.25 C4.7675 29.93 5.0975 28.61 5.4375 27.25 C4.24125 27.476875 3.045 27.70375 1.8125 27.9375 C-2.483617 28.46215854 -4.94237406 27.77566926 -8.5625 25.25 C-12.49048097 19.87240701 -12.36353186 14.68437547 -11.5625 8.25 C-9.45955485 2.85862591 -5.80457503 -0.03825091 0 0 Z M-1.5625 7.25 C-4.1031327 11.06094904 -4.14739947 13.78433894 -3.5625 18.25 C-2.62041909 20.44411252 -2.62041909 20.44411252 -0.5625 21.25 C2.52745097 21.33223366 2.52745097 21.33223366 5.4375 20.25 C7.06118888 18.67218117 7.06118888 18.67218117 7.4375 16.25 C7.21204348 11.20463616 7.21204348 11.20463616 4.4375 7.25 C1.4375 6.83333333 1.4375 6.83333333 -1.5625 7.25 Z " fill="#2293C6" transform="translate(475.5625,92.75)"/>
<path d="M0 0 C2.64 0 5.28 0 8 0 C8.33 3.3 8.66 6.6 9 10 C9.33 9.67 9.66 9.34 10 9 C14.6378716 8.48468093 18.66834365 8.05809673 22.5625 10.8125 C24.80698849 14.22802597 25.12181276 16.90089518 25.09765625 20.88671875 C25.09443359 21.82451172 25.09121094 22.76230469 25.08789062 23.72851562 C25.07951172 24.70498047 25.07113281 25.68144531 25.0625 26.6875 C25.05798828 27.67556641 25.05347656 28.66363281 25.04882812 29.68164062 C25.03704303 32.12115474 25.02059011 34.56054689 25 37 C22.36 37 19.72 37 17 37 C16.97494385 36.43490723 16.9498877 35.86981445 16.92407227 35.28759766 C16.80820044 32.73316258 16.68543463 30.1791045 16.5625 27.625 C16.52318359 26.73554687 16.48386719 25.84609375 16.44335938 24.9296875 C16.40146484 24.07890625 16.35957031 23.228125 16.31640625 22.3515625 C16.27974854 21.56604004 16.24309082 20.78051758 16.20532227 19.97119141 C16.109109 17.92476504 16.109109 17.92476504 15 16 C13.02 16 11.04 16 9 16 C8.67 22.93 8.34 29.86 8 37 C5.36 37 2.72 37 0 37 C0 24.79 0 12.58 0 0 Z " fill="#2293C6" transform="translate(330,84)"/>
<path d="M0 0 C3.98770137 1.92904101 6.33228702 4.94239476 8 9 C8.69512525 13.82546246 8.63001958 18.51482101 6.4375 22.9375 C3.46705509 26.66959745 1.60894845 27.79109549 -3 29 C-7.69603772 29.03966248 -11.96815987 28.53357804 -16 26 C-19.79247887 21.01359259 -20.68927907 16.10504321 -20 10 C-16.40139649 0.1511904 -9.79126447 -1.55017313 0 0 Z M-10.3125 7.9375 C-12.3897928 11.70740175 -12.16317221 13.84811689 -11.65234375 18.01171875 C-11.10285122 20.37752137 -11.10285122 20.37752137 -8 22 C-5.5 22.5 -5.5 22.5 -3 22 C-0.85776643 20.22711704 -0.13941961 18.82971673 0.3203125 16.09375 C0.52530607 12.43119825 0.39430786 10.56329694 -1.75 7.5 C-5.17083614 5.21944258 -7.17636598 5.30992825 -10.3125 7.9375 Z " fill="#2293C6" transform="translate(453,93)"/>
<path d="M0 0 C3.5017277 1.62389281 5.4029818 3.99592394 7.375 7.3125 C8.84982816 13.6542611 8.51659537 18.63242875 5.31640625 24.296875 C2.94604137 27.36357853 0.71359429 28.10154977 -3 29 C-8.21206686 29.25245949 -11.80730052 28.91937251 -16 25.6875 C-20.08788238 20.19440805 -20.87991223 15.79249318 -20 9 C-15.43033403 0.02387042 -9.56364294 -1.36806122 0 0 Z M-10.375 7.4375 C-12.61848574 10.97530443 -12.72878369 13.91210987 -12 18 C-10.66169042 20.4595774 -10.66169042 20.4595774 -9 22 C-5.56206661 21.81870185 -5.56206661 21.81870185 -2 21 C-0.01557779 18.67046088 -0.00397063 17.04764755 0.25 14 C-0.04561383 10.16426746 -0.04561383 10.16426746 -2 7 C-5.53421138 5.77070909 -7.13043397 5.47368372 -10.375 7.4375 Z " fill="#2293C6" transform="translate(409,93)"/>
<path d="M0 0 C2.73377373 1.36688687 3.92288457 2.64957991 6 5 C7 8 7 8 7 16 C1.06 16 -4.88 16 -11 16 C-10.01 17.65 -9.02 19.3 -8 21 C-4.37400578 21.41725678 -4.37400578 21.41725678 -1 21 C-1 20.34 -1 19.68 -1 19 C1.64 19 4.28 19 7 19 C6.72698814 22.2761423 6.20885506 23.76503806 4 26.25 C0.0182309 28.57269864 -3.40860374 29.20280019 -8 29 C-12.77217952 27.37925978 -15.23662847 25.16818175 -18 21 C-18.89404581 15.72821265 -19.29793341 9.71081296 -16.94140625 4.7890625 C-12.29278735 -0.86652726 -6.87517404 -0.88118428 0 0 Z M-10 8 C-10 8.99 -10 9.98 -10 11 C-7.03 11 -4.06 11 -1 11 C-1.33 9.68 -1.66 8.36 -2 7 C-6.17810069 5.81068813 -6.17810069 5.81068813 -10 8 Z " fill="#2293C6" transform="translate(526,93)"/>
<path d="M0 0 C2.73377373 1.36688687 3.92288457 2.64957991 6 5 C7 8 7 8 7 16 C1.06 16 -4.88 16 -11 16 C-10.01 17.65 -9.02 19.3 -8 21 C-4.37400578 21.41725678 -4.37400578 21.41725678 -1 21 C-1 20.34 -1 19.68 -1 19 C1.64 19 4.28 19 7 19 C6.72698814 22.2761423 6.20885506 23.76503806 4 26.25 C0.0182309 28.57269864 -3.40860374 29.20280019 -8 29 C-12.77217952 27.37925978 -15.23662847 25.16818175 -18 21 C-18.89404581 15.72821265 -19.29793341 9.71081296 -16.94140625 4.7890625 C-12.29278735 -0.86652726 -6.87517404 -0.88118428 0 0 Z M-10 8 C-10 8.99 -10 9.98 -10 11 C-7.03 11 -4.06 11 -1 11 C-1.33 9.68 -1.66 8.36 -2 7 C-6.17810069 5.81068813 -6.17810069 5.81068813 -10 8 Z " fill="#2293C6" transform="translate(291,93)"/>
<path d="M0 0 C3.1875 1.6875 3.1875 1.6875 5 4 C5.8125 6.75 5.8125 6.75 6 9 C3.36 9 0.72 9 -2 9 C-2.33 8.34 -2.66 7.68 -3 7 C-4.98 7 -6.96 7 -9 7 C-9.33 7.66 -9.66 8.32 -10 9 C-9.18015625 9.18175781 -8.3603125 9.36351563 -7.515625 9.55078125 C-6.43796875 9.80214844 -5.3603125 10.05351563 -4.25 10.3125 C-3.18265625 10.55613281 -2.1153125 10.79976562 -1.015625 11.05078125 C1.9945952 11.99829875 3.79309789 12.75640355 6 15 C6.82015321 18.07133238 6.62305786 20.89593699 6 24 C3.28040268 27.62612976 0.43891373 28.29961946 -3.875 28.9375 C-8.77701235 29.2594232 -11.74094846 28.39571649 -16 26 C-18.35953094 23.64046906 -18.49141413 22.22104383 -19 19 C-16.36 19 -13.72 19 -11 19 C-10.67 19.99 -10.34 20.98 -10 22 C-7.08347826 22.16681109 -7.08347826 22.16681109 -4 22 C-3.34 21.34 -2.68 20.68 -2 20 C-2.98742187 19.68546875 -3.97484375 19.3709375 -4.9921875 19.046875 C-6.28671899 18.6153645 -7.58097587 18.1830296 -8.875 17.75 C-9.52597656 17.54503906 -10.17695312 17.34007813 -10.84765625 17.12890625 C-13.68299072 16.16430792 -15.63446828 15.49263035 -17.44921875 13.046875 C-18.34591439 9.71447419 -17.88570324 7.30662544 -17 4 C-12.88815707 -1.5297198 -6.2657491 -0.85796564 0 0 Z " fill="#2293C6" transform="translate(554,93)"/>
<path d="M0 0 C0.76828125 -0.04898438 1.5365625 -0.09796875 2.328125 -0.1484375 C6.24332918 0.69775179 7.4726251 2.08101134 9.75 5.375 C10.35722554 9.3313716 10.22095187 13.19695048 10.0625 17.1875 C10.03994141 18.26193359 10.01738281 19.33636719 9.99414062 20.44335938 C9.93535598 23.0886685 9.85323957 25.73111413 9.75 28.375 C7.11 28.375 4.47 28.375 1.75 28.375 C1.255 18.475 1.255 18.475 0.75 8.375 C-0.57 8.045 -1.89 7.715 -3.25 7.375 C-5.40176726 8.84426839 -6.12880312 9.81637203 -6.68237305 12.36791992 C-6.70855713 13.10631104 -6.73474121 13.84470215 -6.76171875 14.60546875 C-6.79716797 15.40791016 -6.83261719 16.21035156 -6.86914062 17.03710938 C-6.90297852 18.28717773 -6.90297852 18.28717773 -6.9375 19.5625 C-6.97166016 20.40748047 -7.00582031 21.25246094 -7.04101562 22.12304688 C-7.12341471 24.20656649 -7.18838645 26.29076216 -7.25 28.375 C-9.89 28.375 -12.53 28.375 -15.25 28.375 C-15.25 19.465 -15.25 10.555 -15.25 1.375 C-11.91666667 1.375 -8.58333333 1.375 -5.25 1.375 C-3.69049449 -0.18450551 -2.16122869 0.09303302 0 0 Z " fill="#2293C6" transform="translate(375.25,92.625)"/>
<path d="M0 0 C9.9 0 19.8 0 30 0 C30 2.31 30 4.62 30 7 C26.37 7 22.74 7 19 7 C19 16.9 19 26.8 19 37 C16.36 37 13.72 37 11 37 C11 27.1 11 17.2 11 7 C7.37 7 3.74 7 0 7 C0 4.69 0 2.38 0 0 Z " fill="#2293C6" transform="translate(245,84)"/>
<path d="M0 0 C2.36072962 2.13941121 3.15948315 3.75607509 4 6.8125 C4 7.8025 4 8.7925 4 9.8125 C1.36 9.8125 -1.28 9.8125 -4 9.8125 C-4.33 8.4925 -4.66 7.1725 -5 5.8125 C-8.81813447 6.08790704 -8.81813447 6.08790704 -12 7.8125 C-12.09854655 9.45590867 -12.12972411 11.1036461 -12.125 12.75 C-12.12757813 13.64589844 -12.13015625 14.54179688 -12.1328125 15.46484375 C-12.15421413 17.83405555 -12.15421413 17.83405555 -11 19.8125 C-9.35 19.8125 -7.7 19.8125 -6 19.8125 C-5.34 18.4925 -4.68 17.1725 -4 15.8125 C-1.36 15.8125 1.28 15.8125 4 15.8125 C3.49614177 20.22125955 2.0886933 22.63800966 -1 25.8125 C-4.85901543 28.23816684 -8.46428111 28.02821491 -12.84375 27.4296875 C-16.20231429 26.46835931 -17.89568506 24.50865352 -20 21.8125 C-22.20738669 17.39772662 -21.42622642 11.61776504 -21 6.8125 C-19.83880666 3.54551563 -18.16737157 1.52935077 -15.16796875 -0.3125 C-10.31891054 -2.26959737 -4.7916385 -1.89669024 0 0 Z " fill="#2293C6" transform="translate(322,94.1875)"/>
<path d="M0 0 C2.64 0 5.28 0 8 0 C8 12.21 8 24.42 8 37 C5.36 37 2.72 37 0 37 C0 24.79 0 12.58 0 0 Z " fill="#2293C6" transform="translate(421,84)"/>
<path d="M0 0 C2.31 0 4.62 0 7 0 C7 9.24 7 18.48 7 28 C4.69 28 2.38 28 0 28 C0 18.76 0 9.52 0 0 Z " fill="#2293C6" transform="translate(496,93)"/>
<path d="M0 0 C2.84383123 1.2748209 5.13754018 2.45137078 7 5 C6.74853421 7.13745922 6.54074221 8.45925779 5 10 C2.66055264 9.71269945 0.3260857 9.38063221 -2 9 C-2.6875 6.1875 -2.6875 6.1875 -3 3 C-1.5625 1.125 -1.5625 1.125 0 0 Z " fill="#2293C6" transform="translate(113,86)"/>
<path d="M0 0 C2.31 0 4.62 0 7 0 C7 2.31 7 4.62 7 7 C4.69 7 2.38 7 0 7 C0 4.69 0 2.38 0 0 Z " fill="#2293C6" transform="translate(496,84)"/>
<path d="M0 0 C1.65 0 3.3 0 5 0 C5 1.98 5 3.96 5 6 C3.0625 6.5625 3.0625 6.5625 1 7 C0 6 0 6 -0.0625 2.9375 C-0.041875 1.968125 -0.02125 0.99875 0 0 Z " fill="#2293C6" transform="translate(114,73)"/>
</svg>
